<svg xmlns="http://www.w3.org/2000/svg" xmlns:xlink="http://www.w3.org/1999/xlink" width="12.305785019747304" height="15" style=""><rect id="backgroundrect" width="100%" height="100%" x="0" y="0" fill="none" stroke="none" class="" style=""/>

<g class="currentLayer" style=""><title>Layer 1</title><g id="surface1762021" class="selected" fill="#b6b6b6" fill-opacity="1">
<path style="stroke: none; fill-rule: nonzero;" d="M3.310159994930956,0.12613035067945555 C2.082903511532578,0.12613035067945555 1.0747998065889206,1.2042355807376621 1.0747998065889206,2.520077267751617 L1.0747998065889206,13.577570435936114 C1.0747998065889206,13.784898609759463 1.1830874733779169,13.975640189990756 1.355831063198183,14.069629235760104 C1.5285753130555486,14.16638177022205 1.7348369069040146,14.147031687937396 1.892111207204196,14.02816345945952 L5.888429918036792,10.943122865536047 L9.884748628869387,14.02816345945952 C10.042022929169567,14.147031687937396 10.248284523018034,14.16638177022205 10.4210287728754,14.069629235760104 C10.593772362695669,13.975640189990756 10.702060029484661,13.784898609759463 10.702060029484661,13.577570435936114 L10.702060029484661,2.520077267751617 C10.702060029484661,1.2042355807376621 9.693956324541006,0.12613035067945555 8.466699841142628,0.12613035067945555 zM3.310159994930956,1.2318796674979051 L8.466699841142628,1.2318796674979051 C9.137050021150145,1.2318796674979051 9.670752060242327,1.8013402118196247 9.670752060242327,2.520077267751617 L9.670752060242327,12.499465205877906 L6.190087334030901,9.812494366009073 C6.00960876943204,9.674275347566986 5.767251066641544,9.674275347566986 5.586772502042685,9.812494366009073 L2.106107775831255,12.499465205877906 L2.106107775831255,2.520077267751617 C2.106107775831255,1.8013402118196247 2.6398098149234386,1.2318796674979051 3.310159994930956,1.2318796674979051 zM3.310159994930956,1.2318796674979051 " id="svg_1" fill="#b6b6b6" fill-opacity="1"/>
</g></g></svg>