<svg xmlns="http://www.w3.org/2000/svg" xmlns:xlink="http://www.w3.org/1999/xlink" width="98.65289250987371" height="28.958677529621013" version="1.1" style=""><rect id="backgroundrect" width="100%" height="100%" x="0" y="0" fill="none" stroke="none" class="" style=""/>

<g class="currentLayer" style=""><title>Layer 1</title><g id="surface1" class="selected" fill="#b6b6b6" fill-opacity="1">
<path style="stroke: none; fill-rule: nonzero;" d="M1.9453118818227997,1.2182190848962215 C4.527332440157271,1.2182190848962215 7.084757650072934,1.1522218463784055 9.666771913206883,1.2512134806021713 C11.65861112789876,1.3172107191199878 13.207822203859337,3.3299955637716674 13.527498781298663,6.101702192295689 C13.920948813593382,9.236372514902909 12.83896122478291,11.909087509203168 11.166798587530362,12.635006450263644 C11.117620481093784,12.668009293075507 11.09303142787549,12.733998084487405 11.043847026238396,12.766992480193354 C12.617647155417261,13.459925472653799 13.576683182935765,15.043757831810384 13.847181653938511,17.41950637054526 C14.289809792669809,21.346084425624852 12.83896122478291,24.54675198674989 10.13399540035699,25.00869886795093 C9.543820351914915,25.1076905021747 8.929056250254545,25.1076905021747 8.314285853393663,25.1076905021747 C6.199495077409819,25.140684897880647 4.084698006225455,25.140684897880647 1.9453118818227997,25.140684897880647 zM5.363410611183285,20.55416824604656 C5.4125950128203835,20.58717108885843 5.461773119256963,20.620165484564378 5.510957520894064,20.620165484564378 C6.568356056486243,20.620165484564378 7.625748296877909,20.68615427597628 8.70773588568838,20.620165484564378 C9.789723474498853,20.52117385034061 10.453671977796319,19.53128284942071 10.478261031014608,18.01343928167602 C10.502856379433414,16.495595713931333 9.912681330991338,15.406713078787668 8.83068744698035,15.20873825744605 C8.142156185665112,15.109746623222284 7.4536123339488425,15.142741018928236 6.7650810726336,15.142741018928236 C6.297857585483499,15.142741018928236 5.855223151551679,15.142741018928236 5.363410611183285,15.142741018928236 zM5.3388215579649945,10.68821039702386 C6.3470356919200785,10.68821039702386 7.281482666220293,10.68821039702386 8.215923345319982,10.68821039702386 C8.41264836146734,10.68821039702386 8.584784324396411,10.68821039702386 8.781509340543769,10.62222160561196 C9.445457843841236,10.424238337164429 9.937270384209633,9.929297060257438 10.109406347138696,8.873408820819707 C10.379898522940929,7.190584827439361 9.691360966425174,5.771732893918446 8.53560621795983,5.672741259694677 C8.019198329172623,5.63974686398873 7.4782076823676515,5.672741259694677 6.937210740362154,5.672741259694677 C6.420809146775467,5.672741259694677 5.904407553188781,5.672741259694677 5.363410611183285,5.672741259694677 C5.363410611183285,5.837730132436262 5.3388215579649945,5.936713319554107 5.3388215579649945,6.035704953777875 C5.3388215579649945,7.553548521522558 5.3388215579649945,9.071383642161328 5.3388215579649945,10.68821039702386 zM63.27433881336209,25.569637383375746 C62.88088878106738,25.470645749151988 62.48743874877267,25.37166256203413 62.06939966325965,25.23967653210441 C58.970977511338496,24.117791054148874 57.37258832894133,20.059226969139566 57.643086799944086,15.604696347235198 C57.88898992252802,11.876093113497216 59.143113474267565,9.17037527638509 61.50381366803586,7.883509372793888 C64.82354988932266,6.134696588001638 68.68427675741444,8.510445126736515 69.24986275263825,15.175735414634179 C69.32363620749362,16.03364883273029 69.32363620749362,16.924556646532345 69.34822526071193,17.914447647452256 L60.79068705830182,17.914447647452256 C60.98741207444918,19.53128284942071 61.52840272125416,20.68615427597628 62.48743874877267,21.313090029918904 C64.03664982473322,22.302981030838808 65.48749209741962,21.808039753931812 66.86456721045113,20.48817945463466 C66.96293601372531,20.389187820410896 67.0367031733802,20.290196186187128 67.11047662823557,20.22420739477523 C67.11047662823557,20.22420739477523 67.13506568145388,20.22420739477523 67.18425008309097,20.22420739477523 C67.60228916860399,21.14810960428324 68.04491730733528,22.105006209497194 68.5367361429042,23.193888844640867 C68.09410170897237,23.622841330135962 67.67606262345939,24.051802262736974 67.23342818952756,24.381763114008308 C66.39735001850153,25.00869886795093 65.53667649905671,25.338668166328176 64.60223581995703,25.470645749151988 C64.50386701668282,25.470645749151988 64.40551080380966,25.536642987669794 64.30714200053546,25.569637383375746 zM66.39735001850153,14.74678292913909 C66.44652812493814,12.602012054557692 65.09404206512491,10.95218245688329 63.37270132143578,11.084176933918922 C61.94644180676716,11.15016572533082 60.66773549700985,12.96497574864089 60.81527611152011,14.74678292913909 zM75.59424137579029,25.569637383375746 C75.1024288354219,25.43765135344603 74.58602724183521,25.305665323516312 74.1188037546851,25.1076905021747 C71.7826926141351,24.150785449854823 70.18430343173793,21.18110399998919 69.98757841559058,17.584486796180926 C69.79085339944322,14.185844413714273 70.43021284952238,11.282151755260537 72.24991610128521,9.137380880679146 C75.00406632734823,5.90371892384816 80.41400427140059,6.629646312014553 81.47140280699276,14.31783044364399 C81.54517626184816,14.878768959068795 81.59435436828474,15.439707474493611 81.61894342150302,16.00065443702434 C81.64353876992183,16.627590190966966 81.61894342150302,17.221523102097727 81.61894342150302,17.914447647452256 L73.11058962073002,17.914447647452256 C73.1843630755854,18.87134425266621 73.43026619816936,19.630266036538554 73.84831157888289,20.290196186187128 C74.78275225798257,21.742042515414003 75.96310235486672,22.039008970979378 77.24181495982455,21.676053724002102 C78.05330407763228,21.47807045555457 78.79102603578514,21.01612357435352 79.45496824388209,20.158210156257415 L80.8320433569136,23.16089444893492 C80.48777772625596,23.523858143018117 80.14351209559837,23.919816232807257 79.79924016974022,24.21678268837264 C78.91397759707709,24.942701629433124 77.9549415695586,25.305665323516312 76.94672743560352,25.470645749151988 C76.84836492752984,25.470645749151988 76.72541336623786,25.536642987669794 76.6024618049459,25.569637383375746 C76.28277893230606,25.569637383375746 75.93851330164841,25.569637383375746 75.59424137579029,25.569637383375746 zM73.1351786739483,14.74678292913909 L78.71725258092974,14.74678292913909 C78.79102603578514,12.668009293075507 77.46312902919021,11.018179695401106 75.79096639193764,11.05117409110706 C74.31552877083246,11.117171329624876 73.03681616587463,12.86598411441712 73.1351786739483,14.74678292913909 zM19.207935196353773,25.569637383375746 C18.839074217277343,25.470645749151988 18.494808586619733,25.37166256203413 18.125947607543303,25.23967653210441 C15.888198975066965,24.414757509714253 14.56030826367256,21.907031388155584 14.56030826367256,18.442391767171117 C14.56030826367256,15.109746623222284 14.56030826367256,11.777101479273451 14.56030826367256,8.444456335324617 L14.56030826367256,7.850514977087938 L17.584956960738324,7.850514977087938 L17.584956960738324,8.477450731030562 C17.584956960738324,11.645115449343738 17.584956960738324,14.779785771950952 17.584956960738324,17.914447647452256 C17.584956960738324,19.333299580973172 17.85544913654055,20.55416824604656 18.765307057622476,21.18110399998919 C19.72433678994046,21.841034149637768 20.732557219096066,21.808039753931812 21.642408844977467,20.851143148717856 C22.28176199985612,20.158210156257415 22.478487016003477,19.069327521113745 22.478487016003477,17.914447647452256 C22.478487016003477,14.779785771950952 22.478487016003477,11.645115449343738 22.478487016003477,8.510445126736515 L22.478487016003477,7.850514977087938 L25.478546659850956,7.850514977087938 L25.478546659850956,8.444456335324617 C25.478546659850956,11.744098636461583 25.478546659850956,15.043757831810384 25.478546659850956,18.343400132947348 C25.478546659850956,22.302981030838808 23.8309730758167,25.041693263656885 21.19977441104565,25.43765135344603 C21.07682284975368,25.470645749151988 20.953871288461713,25.536642987669794 20.80632437875093,25.569637383375746 C20.289922785164247,25.569637383375746 19.748932138359265,25.569637383375746 19.207935196353773,25.569637383375746 zM47.806835992576154,25.074696106468743 L47.806835992576154,1.2182190848962215 L58.823436896828234,1.2182190848962215 L58.823436896828234,3.527970385113281 C58.823436896828234,4.055914504832143 58.79884154840943,4.550864228845056 58.823436896828234,5.078808348563916 C58.848025950046534,5.5737580725768305 58.72507438875455,5.672741259694677 58.40539151611471,5.672741259694677 C56.241416338493764,5.63974686398873 54.05285210765452,5.672741259694677 51.8888769300336,5.672741259694677 L51.200339373517835,5.672741259694677 L51.200339373517835,10.68821039702386 L51.618384754231364,10.68821039702386 C53.24136298984681,10.68821039702386 54.88893657388107,10.68821039702386 56.53651015791532,10.68821039702386 C56.856186735354655,10.655216001317914 56.92996019021004,10.820204874059492 56.92996019021004,11.31514615096649 C56.90536484179123,12.569017658851745 56.92996019021004,13.822880719631083 56.92996019021004,15.142741018928236 L51.175750320299535,15.142741018928236 L51.175750320299535,25.074696106468743 zM82.40584348609246,25.074696106468743 L82.40584348609246,24.44776035252612 C82.40584348609246,19.102321916819694 82.40584348609246,13.756891928219183 82.40584348609246,8.411453492512752 C82.40584348609246,7.718528947158222 82.40584348609246,7.718528947158222 82.87306697324257,7.718528947158222 C84.54522961049511,7.751523342864172 86.21739224774765,7.652540155746324 87.86496583178192,7.850514977087938 C90.22566602555023,8.11448703694737 92.06996462573184,9.698319396103953 92.93063814517666,13.19595341279437 C93.81589442263925,16.759567773790764 93.15195221454229,20.81814030590599 91.33224266757898,23.061902814711157 C90.27484413198681,24.381763114008308 89.02072687544776,25.00869886795093 87.69282986885284,25.074696106468743 C85.97148912516371,25.173679293586602 84.25014208627408,25.1076905021747 82.55339039580323,25.1076905021747 C82.52880134258496,25.1076905021747 82.47961694094784,25.1076905021747 82.40584348609246,25.074696106468743 zM85.28295156864797,21.412081664142672 C85.87312661709004,21.412081664142672 86.41411726389501,21.412081664142672 86.95511420590051,21.412081664142672 C88.8977690189553,21.412081664142672 90.12730351747655,19.76225206646827 90.34861758684218,16.82556501230858 C90.52075354977126,14.713788533433135 89.75844253840012,12.602012054557692 88.55350338829766,11.876093113497216 C87.49610485270549,11.216154516742721 86.38952821067673,11.579118210825921 85.28295156864797,11.480126576602153 C85.28295156864797,14.812780167656905 85.28295156864797,18.079428073087918 85.28295156864797,21.412081664142672 zM31.577022160419073,11.744098636461583 L26.437582687369463,11.744098636461583 L26.437582687369463,7.817520581381985 L35.7328365527319,7.817520581381985 C35.7328365527319,8.576433918148414 35.7082474995136,9.302361306314808 35.7328365527319,10.061283090187153 C35.75742560595018,10.721213239835729 35.60988499143993,11.249157359554593 35.33938652043717,11.777101479273451 C33.7901754444766,14.680794137727188 32.26555971693483,17.584486796180926 30.74093769419254,20.52117385034061 C30.667164239337147,20.653159880270326 30.59339707968228,20.81814030590599 30.470439223189793,21.082112365765422 L35.782014659168475,21.082112365765422 L35.782014659168475,25.074696106468743 L26.412987338950654,25.074696106468743 C26.412987338950654,23.985805024219164 26.412987338950654,22.896922389075485 26.437582687369463,21.808039753931812 C26.437582687369463,21.610056485484286 26.560534248661433,21.412081664142672 26.634307703516825,21.247092791401084 C28.20810783269569,18.244416945829506 29.78190796187456,15.241732653151999 31.35570809105343,12.239048360474492 C31.404886197490004,12.107062330544782 31.478659652345392,11.975076300615067 31.577022160419073,11.744098636461583 zM36.618099125395005,11.744098636461583 C36.618099125395005,10.523229971388197 36.618099125395005,9.368350097726706 36.618099125395005,8.246473066877083 C36.618099125395005,8.11448703694737 36.618099125395005,7.982501007017653 36.6426881786133,7.850514977087938 L45.88876393753915,7.850514977087938 C45.88876393753915,8.873408820819707 45.88876393753915,9.929297060257438 45.86417488432086,10.95218245688329 C45.86417488432086,11.117171329624876 45.76581237624718,11.282151755260537 45.692038921391784,11.414137785190253 C44.09364973899463,14.449816473573705 42.519849609815765,17.518489557663113 40.9214604274186,20.55416824604656 C40.84768697256322,20.68615427597628 40.773913517707825,20.851143148717856 40.650961956415856,21.11511520857729 L41.11818544356596,21.11511520857729 C42.61821211788945,21.11511520857729 44.11823879221292,21.11511520857729 45.6182654665364,21.11511520857729 C45.91335928595797,21.11511520857729 46.01171549883111,21.21409839569514 45.98712644561283,21.64305932829615 C45.98712644561283,22.797930754851723 45.98712644561283,23.919816232807257 45.98712644561283,25.074696106468743 L36.618099125395005,25.074696106468743 C36.618099125395005,23.952810628513213 36.618099125395005,22.830925150557672 36.618099125395005,21.742042515414003 C36.618099125395005,21.610056485484286 36.71646163346868,21.44507605984862 36.790235088324074,21.313090029918904 C38.314850815865846,18.376402975759216 39.864061891826424,15.47271031730548 41.388683914568716,12.536014816039875 C41.487040127441865,12.305045598992315 41.609997983934356,12.074067934838828 41.78213394686344,11.744098636461583 zM36.618099125395005,11.744098636461583 " id="svg_1" fill="#b6b6b6" fill-opacity="1"/>
</g></g></svg>