<svg xmlns="http://www.w3.org/2000/svg" xmlns:xlink="http://www.w3.org/1999/xlink" width="122.47107490126314" height="22.65289250987371"><rect id="backgroundrect" width="100%" height="100%" x="0" y="0" fill="none" stroke="none" class="selected" style=""/>

<g class="currentLayer" style=""><title>Layer 1</title><g id="surface31524" class="" fill="#b6b6b6" fill-opacity="1">
<path style="stroke: none; fill-rule: nonzero;" d="M7.942148381504225,4.322315216064453 C4.013687821554338,4.322315216064453 0.8264462351799011,7.617716104314804 0.8264462351799011,11.445798008293986 C0.8264462351799011,15.273879912273168 4.013687821554338,18.190083622932434 7.942148381504225,18.190083622932434 L15.057850527828549,18.190083622932434 C18.986311087778436,18.190083622932434 22.173552674152873,15.093310011142075 22.173552674152873,11.256199419498444 C22.173552674152873,7.428117515519261 18.986311087778436,4.322315216064453 15.057850527828549,4.322315216064453 zM24.545453389594314,4.322315216064453 L24.545453389594314,18.190083622932434 L26.917354105035756,18.190083622932434 L26.917354105035756,6.63360995054245 L36.34010050427206,6.63360995054245 C37.609438194178416,6.63360995054245 38.77685768224296,7.771199942452551 38.77685768224296,9.017132645472884 C38.77685768224296,10.254036660828769 37.609438194178416,11.256199419498444 36.34010050427206,11.256199419498444 L29.289254820477197,11.256199419498444 L37.84106853044557,18.190083622932434 L41.148758397684404,18.190083622932434 L35.26533299258765,13.56749415397644 L36.516139812837835,13.56749415397644 C39.17526268288138,13.56749415397644 41.148758397684404,11.599281846431733 41.148758397684404,9.017132645472884 C41.148758397684404,6.4259547568495865 39.17526268288138,4.322315216064453 36.516139812837835,4.322315216064453 zM53.00826197489161,4.322315216064453 C52.368960412524395,4.322315216064453 51.7945161033202,4.638312350435973 51.45170213038316,5.161965448931932 L43.520659113125845,18.190083622932434 L46.08713000678923,18.190083622932434 L53.00826197489161,6.63360995054245 L57.18688374076482,13.56749415397644 L50.63636125945017,13.56749415397644 L53.00826197489161,15.878788888454437 L58.57666971153558,15.878788888454437 L59.97572032650084,18.190083622932434 L62.495864836657375,18.190083622932434 L54.52776087072128,5.1439080736030345 C54.19421233261233,4.6292844332031 53.62903266760266,4.322315216064453 53.00826197489161,4.322315216064453 zM69.6115669829817,4.322315216064453 C65.68310642303182,4.322315216064453 62.495864836657375,7.428117515519261 62.495864836657375,11.256199419498444 C62.495864836657375,15.084281323477626 65.68310642303182,18.190083622932434 69.6115669829817,18.190083622932434 L79.09916984474746,18.190083622932434 L81.4710705601889,15.878788888454437 L69.56524059947485,15.878788888454437 C66.97097419196076,15.878788888454437 64.86776555209882,13.811263327895523 64.86776555209882,11.256199419498444 C64.86776555209882,8.710163428334237 66.97097419196076,6.63360995054245 69.56524059947485,6.63360995054245 L79.09916984474746,6.63360995054245 L81.4710705601889,4.322315216064453 zM83.84297127563035,4.322315216064453 L83.84297127563035,16.86289504222679 C83.84297127563035,17.205977469160082 83.98194963551735,17.53100329119605 84.24137627626877,17.79282984044403 C84.50080291702017,18.04562770202756 84.86214696897981,18.190083622932434 85.24202189059562,18.190083622932434 L95.70247485283755,18.190083622932434 L98.074375568279,15.878788888454437 L86.21487199107179,15.878788888454437 L86.21487199107179,4.322315216064453 zM107.56197843004476,4.322315216064453 C103.63351787009488,4.322315216064453 100.44627628372044,7.428117515519261 100.44627628372044,11.256199419498444 C100.44627628372044,15.084281323477626 103.63351787009488,18.190083622932434 107.56197843004476,18.190083622932434 L117.04958129181053,18.190083622932434 L119.42148200725197,15.878788888454437 L107.51565204653791,15.878788888454437 C105.32905607449032,15.878788888454437 103.50380494503595,14.40714438684392 102.98495166353314,12.411846786737442 L117.04958129181053,12.411846786737442 L119.42148200725197,10.100552052259445 L102.98495166353314,10.100552052259445 C103.51306958923047,8.114283139817417 105.32905607449032,6.63360995054245 107.51565204653791,6.63360995054245 L117.04958129181053,6.63360995054245 L119.42148200725197,4.322315216064453 zM7.895821997997366,6.63360995054245 L15.104176911335406,6.63360995054245 C17.69844331884948,6.63360995054245 19.80165195871143,8.710163428334237 19.80165195871143,11.256199419498444 C19.80165195871143,13.811263327895523 17.69844331884948,15.878788888454437 15.104176911335406,15.878788888454437 L7.895821997997366,15.878788888454437 C5.301555590483289,15.878788888454437 3.1983469506213424,13.811263327895523 3.1983469506213424,11.256199419498444 C3.1983469506213424,8.710163428334237 5.301555590483289,6.63360995054245 7.895821997997366,6.63360995054245 zM7.895821997997366,6.63360995054245 " id="svg_1" fill="#b6b6b6" fill-opacity="1"/>
</g></g></svg>