<svg xmlns="http://www.w3.org/2000/svg" xmlns:xlink="http://www.w3.org/1999/xlink" width="180.24793482227398" height="19.81818239138954" version="1.1"><rect id="backgroundrect" width="100%" height="100%" x="0" y="0" fill="none" stroke="none" class="" style=""/>

<g class="currentLayer" style=""><title>Layer 1</title><g id="surface1" class="">
<path style=" stroke:none;fill-rule:nonzero;fill:rgb(68.235294%,68.235294%,68.235294%);fill-opacity:1;" d="M0.15798472496340715,8.344307516931828 C0.15798472496340715,8.391113865433724 0.15798472496340715,10.585480656138596 0.15798472496340715,13.22312591765129 L0.140625,18.035865513846336 L1.560668456358452,18.08542496965994 L2.959880420526674,18.132230613321255 L2.959880420526674,15.27156885790822 L11.917613160623741,15.224763214246902 C20.47606689358668,15.177957570585587 20.89617828174033,15.161437517034189 21.555855829813453,14.858576682050904 C22.694668364213392,14.335452460478978 23.156442736747508,13.413103009289426 23.156442736747508,11.648247743152682 C23.156442736747508,10.01279768359365 22.91687568799874,9.360269665125175 22.055822308330498,8.74078034407833 L21.5141919566037,8.344307516931828 L10.837824224396966,8.297501873270509 C4.959746334594858,8.280982172139403 0.15798472496340715,8.297501873270509 0.15798472496340715,8.344307516931828 zM20.07678788645255,10.522154958925885 C20.274691950820845,10.67909194346123 20.455235401396447,11.125124226421336 20.51425899956961,11.634481501753573 C20.576754364969595,12.31729581517255 20.51425899956961,12.554078550472001 20.194835971628162,12.873458734166102 L19.795556964494033,13.269931561312605 L11.375982808896943,13.316737909814504 L2.959880420526674,13.366296660787526 L2.959880420526674,10.155968426729885 L11.358623083933534,10.202774070391202 C18.934503584825787,10.24957971405252 19.7747254723038,10.282619116314729 20.07678788645255,10.522154958925885 zM20.07678788645255,10.522154958925885 " id="svg_1"/>
<path style=" stroke:none;fill-rule:nonzero;fill:rgb(68.235294%,68.235294%,68.235294%);fill-opacity:1;" d="M27.753356747557007,8.56732401083217 C26.315953566235144,9.17029257348704 26.25345731200587,9.329983370174672 26.19443371383271,13.079955174515053 C26.13541011565955,16.38389540073591 26.13541011565955,16.463740446659436 26.593712720966842,17.003384721782755 C27.53462207982777,18.132230613321255 27.3749101214424,18.115710559769862 37.71102244468817,18.115710559769862 C47.97075144479736,18.115710559769862 47.89089546560468,18.115710559769862 48.81097333227538,17.099749116417094 C49.23108383159974,16.637197484746174 49.25191532378996,16.41693480299812 49.31093981079242,13.476428001661555 C49.36996340896558,10.615766951089102 49.33177130298265,10.282619116314729 48.97068440183145,9.616324856447147 C48.65126137389001,9.043641883902199 48.390861944121724,8.820625390001855 47.71035201502908,8.581090252231277 C46.89096250857058,8.297501873270509 46.33197243188038,8.2644624710083 37.651998846515006,8.2644624710083 C29.072712732532537,8.2644624710083 28.395675459496015,8.280982172139403 27.753356747557007,8.56732401083217 zM46.29030855867063,10.535921200324992 C46.60973158661208,10.775457042936152 46.65139545982183,11.125124226421336 46.65139545982183,13.206606568940474 C46.65139545982183,15.52762475407077 46.630563078802304,15.604715987842011 46.1722613623243,15.907577527665879 C45.731318481980416,16.193919013938356 45.29037560163654,16.210439067489745 37.81171080490037,16.210439067489745 L29.93376611220079,16.210439067489745 L29.45463201470327,15.81121242819096 C28.975497028376452,15.447779003306666 28.954665536186223,15.351414608672325 28.954665536186223,13.269931561312605 C28.954665536186223,10.998472831995914 29.072712732532537,10.568960602587202 29.815718915854468,10.329425464816627 C30.055285964603225,10.24957971405252 33.77378687078108,10.202774070391202 38.09294172685889,10.2192941239426 C45.33203947484629,10.24957971405252 45.970885530729184,10.266099767603913 46.29030855867063,10.535921200324992 zM46.29030855867063,10.535921200324992 " id="svg_2"/>
<path style=" stroke:none;fill-rule:nonzero;fill:rgb(68.235294%,68.235294%,68.235294%);fill-opacity:1;" d="M52.34892989904833,13.190086515389082 L52.34892989904833,18.115710559769862 L55.150825594611604,18.115710559769862 L55.150825594611604,15.255049509197407 L62.80656207469653,15.255049509197407 C69.8269251549547,15.255049509197407 70.50743508404734,15.27156885790822 71.12544875891071,15.541390995469882 C71.90664615938627,15.874538125403673 72.486468617096,16.637197484746174 72.6670120676716,17.51274199711499 L72.80589164503745,18.115710559769862 L74.16691150322274,18.115710559769862 C75.46543599600805,18.115710559769862 75.54529108637145,18.099191211059043 75.54529108637145,17.749524027573862 C75.54529108637145,16.973098426832248 74.92727741150807,15.717601140868327 74.26412720737882,15.191723811984694 L73.5870899343423,14.668600295253349 L74.26412720737882,14.415297506402503 C75.42724389002511,13.969265928282978 75.64597944658365,13.509467403923765 75.64597944658365,11.52159705356784 C75.64597944658365,9.550246051922729 75.44460361498852,9.137253171224833 74.28495958839837,8.581090252231277 C73.66694502470568,8.280982172139403 73.20517065217159,8.2644624710083 63.007937906291666,8.2644624710083 L52.34892989904833,8.2644624710083 zM72.54549221526916,10.489115556663677 C72.86491613203991,10.742417640673942 72.94477122240329,11.012239778235605 72.94477122240329,11.791418486288919 C72.94477122240329,12.347582110123053 72.8475555182472,12.903745029116607 72.74686804686428,13.03039642354203 C72.58715697730821,13.236892863890978 71.385848188679,13.269931561312605 63.90718250311353,13.269931561312605 L55.248041298767696,13.269931561312605 L55.18901770059454,11.934589229425155 C55.150825594611604,11.204969272344862 55.16818531957501,10.505635610215073 55.23068157380429,10.378984215789648 C55.31053755299697,10.2192941239426 56.92848418489444,10.1724877754407 63.747471433557465,10.1724877754407 C71.88581466719604,10.1724877754407 72.16704558915455,10.186254016839806 72.54549221526916,10.489115556663677 zM72.54549221526916,10.489115556663677 " id="svg_3"/>
<path style=" stroke:none;fill-rule:nonzero;fill:rgb(68.235294%,68.235294%,68.235294%);fill-opacity:1;" d="M80.8261876823297,8.43791950909504 C79.56585529552733,8.724260995367516 78.54508995747369,10.076122675965781 78.54508995747369,11.44175130280373 C78.54508995747369,12.1576057233255 79.28462437356882,13.316737909814504 80.0033264086444,13.72973008567182 C80.54495587154187,14.049110974206503 80.88521128050286,14.065631027757899 89.46449739448532,14.142722966369718 C99.22078726002137,14.222568012293243 98.74165316252385,14.175762368631926 98.74165316252385,15.208243160695508 C98.74165316252385,16.224205308888855 98.90136423207991,16.210439067489745 88.40206818322196,16.210439067489745 L78.94436896460785,16.210439067489745 L78.94436896460785,18.115710559769862 L89.04438600633166,18.115710559769862 C100.2623840902652,18.115710559769862 100.04017676647985,18.132230613321255 101.06094210453348,17.083229767706275 C102.09906627872118,16.003942627140802 101.9011631031822,13.793055782884531 100.68249458958955,12.920265082668001 C99.80060971773109,12.267737064199528 99.19995576783114,12.237450769249024 90.5442854418828,12.237450769249024 C83.78432268022222,12.237450769249024 82.14554366730525,12.190644420747125 81.8434803643272,12.014434275348682 C81.38517775901991,11.744612842627602 81.32615416084674,10.695611997012625 81.76362438513452,10.47259550311228 C81.9233363435199,10.392750457188756 86.18346671259523,10.329425464816627 91.70393035730227,10.329425464816627 L101.34217302649198,10.329425464816627 L101.34217302649198,8.2644624710083 L91.40186705432421,8.280982172139403 C85.92306817165625,8.280982172139403 81.16297043523456,8.36082757048322 80.8261876823297,8.43791950909504 zM80.8261876823297,8.43791950909504 " id="svg_4"/>
<path style=" stroke:none;fill-rule:nonzero;fill:rgb(68.235294%,68.235294%,68.235294%);fill-opacity:1;" d="M106.33836604443562,8.550803957280776 C105.88006343912832,8.724260995367516 105.4807844319942,9.073928178852702 105.17872112901615,9.536479810523621 C104.74125090472837,10.2192941239426 104.72041852370886,10.378984215789648 104.77944301071132,13.380062902186634 C104.83846660888447,16.7968882814338 104.88013048209423,16.923538971018647 106.22031795925999,17.702718383912543 C106.75847654375997,18.022099272447225 107.01887597352825,18.035865513846336 116.75780611410089,18.08542496965994 L126.73630330342226,18.132230613321255 L126.73630330342226,16.210439067489745 L117.51817202238621,16.210439067489745 C111.56023815339142,16.210439067489745 108.17852000011843,16.147113370277033 107.91812145917945,16.050748270802117 C107.56050632525506,15.891057474114485 107.53967394423553,15.68456173860612 107.53967394423553,13.349777312076712 C107.53967394423553,11.967628631687363 107.59869754240869,10.728651399274835 107.66119379663797,10.585480656138596 C107.75840950079407,10.36246416223825 108.8000063310379,10.329425464816627 117.25777259261793,10.329425464816627 L126.73630330342226,10.329425464816627 L126.73630330342226,8.2644624710083 L116.89668569146673,8.2644624710083 C107.91812145917945,8.2644624710083 106.98068386754532,8.297501873270509 106.33836604443562,8.550803957280776 zM106.33836604443562,8.550803957280776 " id="svg_5"/>
<path style=" stroke:none;fill-rule:nonzero;fill:rgb(68.235294%,68.235294%,68.235294%);fill-opacity:1;" d="M129.93400623889283,13.190086515389082 L129.93400623889283,18.115710559769862 L132.7359010456268,18.115710559769862 L132.7359010456268,14.142722966369718 L149.13063559807958,14.142722966369718 L149.13063559807958,18.115710559769862 L152.13043446918186,18.115710559769862 L152.13043446918186,8.2644624710083 L149.13063559807958,8.2644624710083 L149.13063559807958,12.077759972561394 L132.7359010456268,12.077759972561394 L132.7359010456268,8.2644624710083 L129.93400623889283,8.2644624710083 zM129.93400623889283,13.190086515389082 " id="svg_6"/>
<path style=" stroke:none;fill-rule:nonzero;fill:rgb(68.235294%,68.235294%,68.235294%);fill-opacity:1;" d="M155.13023334028415,13.190086515389082 L155.13023334028415,18.115710559769862 L178.52797035920236,18.115710559769862 L178.52797035920236,16.210439067489745 L168.2890728512834,16.17739896038696 L158.02934474000347,16.13059331672564 L157.97032114183034,15.144918168323379 L157.91129665482788,14.142722966369718 L168.16755388771026,14.112436671419214 L178.42728199899017,14.065631027757899 L178.42728199899017,12.1576057233255 L168.23004925311025,12.1576057233255 L158.02934474000347,12.141085669774105 L157.91129665482788,10.329425464816627 L168.16755388771026,10.299139169866121 L178.42728199899017,10.24957971405252 L178.4863064859926,9.250138324251147 L178.54533008416578,8.2644624710083 L155.13023334028415,8.2644624710083 zM155.13023334028415,13.190086515389082 " id="svg_7"/>
</g></g></svg>