<?xml version="1.0" encoding="utf-8"?>
<!-- Generator: Adobe Illustrator 25.4.1, SVG Export Plug-In . SVG Version: 6.00 Build 0)  -->
<svg version="1.1" id="Layer_1" xmlns="http://www.w3.org/2000/svg" xmlns:xlink="http://www.w3.org/1999/xlink" x="0px" y="0px"
	 viewBox="0 0 223.79 38.36" style="enable-background:new 0 0 223.79 38.36;" xml:space="preserve">
<style type="text/css">
	.st0{fill:none;stroke:#000000;stroke-miterlimit:10;}
	.st1{fill:none;}
</style>
<g>
	<path d="M58.97,12.48c0,0.77-0.13,1.49-0.4,2.15s-0.65,1.23-1.13,1.72c-0.6,0.6-1.31,1.05-2.13,1.35s-1.86,0.45-3.11,0.45h-2.32
		v6.5h-2.32V7.21h4.73c1.05,0,1.93,0.09,2.66,0.26s1.37,0.45,1.93,0.83c0.66,0.45,1.18,1,1.54,1.66S58.97,11.47,58.97,12.48z
		 M56.55,12.54c0-0.6-0.11-1.12-0.32-1.57s-0.53-0.81-0.96-1.09c-0.38-0.24-0.8-0.42-1.28-0.52S52.9,9.2,52.17,9.2h-2.3v6.97h1.96
		c0.94,0,1.7-0.08,2.29-0.25c0.59-0.17,1.06-0.44,1.43-0.8c0.37-0.38,0.63-0.77,0.78-1.18S56.55,13.06,56.55,12.54z"/>
	<path d="M70.02,13.97H69.9c-0.33-0.08-0.65-0.13-0.96-0.17s-0.67-0.05-1.1-0.05c-0.68,0-1.34,0.15-1.97,0.45s-1.24,0.69-1.83,1.17
		v9.29h-2.2V11.57h2.2v1.93c0.88-0.7,1.65-1.2,2.31-1.49s1.35-0.44,2.04-0.44c0.38,0,0.66,0.01,0.83,0.03s0.43,0.06,0.77,0.11V13.97
		z"/>
	<path d="M83.25,18.12c0,2.13-0.55,3.82-1.64,5.05s-2.56,1.85-4.39,1.85c-1.85,0-3.32-0.62-4.41-1.85s-1.63-2.92-1.63-5.05
		s0.54-3.82,1.63-5.06s2.56-1.86,4.41-1.86c1.84,0,3.3,0.62,4.39,1.86S83.25,15.99,83.25,18.12z M80.97,18.12
		c0-1.7-0.33-2.96-1-3.78s-1.59-1.24-2.77-1.24c-1.2,0-2.12,0.41-2.78,1.24s-0.99,2.08-0.99,3.78c0,1.64,0.33,2.88,1,3.73
		s1.59,1.27,2.78,1.27c1.17,0,2.09-0.42,2.76-1.26S80.97,19.77,80.97,18.12z"/>
	<path d="M100.59,24.66h-2.47l-1.71-4.86h-7.55l-1.71,4.86h-2.36l6.35-17.45h3.09L100.59,24.66z M95.69,17.8l-3.06-8.57l-3.07,8.57
		H95.69z"/>
	<path d="M113.68,23.17c0,2.22-0.5,3.85-1.51,4.89s-2.56,1.56-4.65,1.56c-0.7,0-1.37-0.05-2.03-0.15s-1.31-0.24-1.95-0.42V26.8h0.12
		c0.36,0.14,0.93,0.31,1.71,0.52s1.56,0.31,2.34,0.31c0.75,0,1.37-0.09,1.86-0.27s0.88-0.43,1.15-0.75c0.27-0.3,0.47-0.67,0.59-1.1
		s0.18-0.91,0.18-1.44v-1.2c-0.66,0.53-1.3,0.93-1.9,1.19s-1.38,0.39-2.31,0.39c-1.56,0-2.8-0.56-3.72-1.69s-1.38-2.72-1.38-4.78
		c0-1.12,0.16-2.1,0.47-2.91s0.75-1.52,1.29-2.12c0.51-0.55,1.12-0.99,1.85-1.29s1.45-0.46,2.17-0.46c0.76,0,1.39,0.08,1.9,0.23
		s1.05,0.38,1.62,0.7l0.14-0.56h2.06V23.17z M111.48,21.06v-7.14c-0.59-0.27-1.13-0.46-1.63-0.57s-1.01-0.17-1.51-0.17
		c-1.21,0-2.16,0.41-2.86,1.22s-1.04,1.99-1.04,3.54c0,1.47,0.26,2.58,0.77,3.34s1.37,1.14,2.57,1.14c0.64,0,1.28-0.12,1.93-0.37
		S110.94,21.47,111.48,21.06z"/>
	<path d="M128.97,18.34h-9.64c0,0.8,0.12,1.51,0.36,2.1s0.57,1.09,1,1.47c0.41,0.38,0.89,0.66,1.45,0.84s1.17,0.28,1.85,0.28
		c0.89,0,1.79-0.18,2.69-0.53s1.54-0.71,1.93-1.05h0.12v2.4c-0.74,0.31-1.5,0.57-2.27,0.79s-1.59,0.32-2.44,0.32
		c-2.17,0-3.87-0.59-5.09-1.76s-1.83-2.85-1.83-5.01c0-2.14,0.58-3.84,1.75-5.1s2.71-1.89,4.61-1.89c1.77,0,3.13,0.52,4.08,1.55
		c0.96,1.03,1.44,2.5,1.44,4.39V18.34z M126.83,16.65c-0.01-1.16-0.3-2.05-0.87-2.68s-1.45-0.95-2.62-0.95
		c-1.18,0-2.12,0.35-2.82,1.04s-1.1,1.56-1.19,2.59H126.83z"/>
	<path d="M143.26,24.66h-2.2V17.2c0-0.6-0.04-1.17-0.11-1.69c-0.07-0.53-0.2-0.94-0.39-1.24c-0.2-0.33-0.48-0.57-0.84-0.73
		s-0.84-0.24-1.43-0.24c-0.6,0-1.23,0.15-1.89,0.45s-1.29,0.68-1.89,1.14v9.77h-2.2V11.57h2.2v1.45c0.69-0.57,1.4-1.02,2.13-1.34
		s1.49-0.48,2.26-0.48c1.41,0,2.49,0.43,3.23,1.28s1.11,2.08,1.11,3.68V24.66z"/>
	<path d="M157.18,23.84c-0.73,0.35-1.43,0.62-2.09,0.82s-1.36,0.29-2.1,0.29c-0.95,0-1.81-0.14-2.6-0.42s-1.46-0.7-2.03-1.26
		c-0.57-0.56-1.01-1.27-1.32-2.13s-0.47-1.86-0.47-3.01c0-2.14,0.59-3.82,1.76-5.04s2.73-1.83,4.66-1.83c0.75,0,1.49,0.11,2.21,0.32
		s1.38,0.47,1.99,0.77v2.45h-0.12c-0.67-0.52-1.37-0.93-2.08-1.21s-1.41-0.42-2.09-0.42c-1.25,0-2.24,0.42-2.96,1.26
		s-1.08,2.07-1.08,3.7c0,1.58,0.35,2.79,1.06,3.64s1.7,1.27,2.98,1.27c0.45,0,0.9-0.06,1.36-0.18s0.88-0.27,1.24-0.46
		c0.32-0.16,0.62-0.34,0.9-0.52s0.5-0.34,0.67-0.47h0.12V23.84z"/>
	<path d="M171.33,11.57l-7.64,17.92h-2.36l2.44-5.46l-5.21-12.46h2.39l4.02,9.7l4.05-9.7H171.33z"/>
	<path d="M193.86,24.66h-11.04V7.21h2.32v15.39h8.72V24.66z"/>
	<path d="M202.8,24.54c-0.41,0.11-0.87,0.2-1.35,0.27s-0.92,0.11-1.31,0.11c-1.34,0-2.35-0.36-3.05-1.08s-1.04-1.87-1.04-3.46v-6.96
		h-1.49v-1.85h1.49V7.81h2.2v3.76h4.55v1.85h-4.55v5.96c0,0.69,0.02,1.22,0.05,1.61s0.14,0.75,0.33,1.08
		c0.17,0.31,0.41,0.54,0.71,0.69s0.76,0.22,1.38,0.22c0.36,0,0.73-0.05,1.12-0.16s0.67-0.19,0.84-0.26h0.12V24.54z"/>
	<path d="M216.08,24.66h-2.2v-1.37c-0.63,0.55-1.29,0.97-1.98,1.28s-1.43,0.46-2.24,0.46c-1.56,0-2.8-0.6-3.72-1.8
		s-1.38-2.87-1.38-5c0-1.11,0.16-2.1,0.47-2.96c0.32-0.87,0.74-1.61,1.28-2.21c0.53-0.59,1.15-1.05,1.86-1.36s1.44-0.47,2.2-0.47
		c0.69,0,1.3,0.07,1.83,0.22s1.09,0.37,1.68,0.67V6.42h2.2V24.66z M213.88,21.43v-7.51c-0.59-0.27-1.12-0.45-1.59-0.55
		s-0.98-0.15-1.54-0.15c-1.23,0-2.2,0.43-2.88,1.29s-1.03,2.08-1.03,3.66c0,1.55,0.27,2.74,0.8,3.54s1.38,1.21,2.55,1.21
		c0.62,0,1.26-0.14,1.9-0.42S213.32,21.87,213.88,21.43z"/>
</g>
<circle class="st0" cx="16.47" cy="15.54" r="9.12"/>
<circle class="st1" cx="199.82" cy="204.79" r="63.7"/>
<circle class="st1" cx="503.92" cy="307.53" r="63.7"/>
<circle class="st1" cx="590.23" cy="434.93" r="63.7"/>
<ellipse class="st1" cx="359.4" cy="240.41" rx="187.67" ry="169.18"/>
</svg>
